<mxfile host="app.diagrams.net" agent="Mozilla/5.0 (Windows NT 10.0; Win64; x64) AppleWebKit/537.36 (KHTML, like Gecko) Chrome/134.0.0.0 Safari/537.36 Edg/134.0.0.0" version="26.1.3">
  <diagram name="第 1 页" id="_pK8h2_F97WThQBRpVV3">
    <mxGraphModel dx="622" dy="344" grid="0" gridSize="10" guides="1" tooltips="1" connect="1" arrows="1" fold="1" page="0" pageScale="1" pageWidth="827" pageHeight="1169" math="0" shadow="0">
      <root>
        <mxCell id="0" />
        <mxCell id="1" parent="0" />
        <mxCell id="tWXHz24MP8W2rNNDq5Hi-1" value="4k img" style="whiteSpace=wrap;html=1;aspect=fixed;" vertex="1" parent="1">
          <mxGeometry x="103" y="240" width="80" height="80" as="geometry" />
        </mxCell>
        <mxCell id="tWXHz24MP8W2rNNDq5Hi-2" value="1k img" style="whiteSpace=wrap;html=1;aspect=fixed;" vertex="1" parent="1">
          <mxGeometry x="238" y="260" width="50" height="50" as="geometry" />
        </mxCell>
        <mxCell id="tWXHz24MP8W2rNNDq5Hi-3" value="1k.npy" style="rounded=1;whiteSpace=wrap;html=1;" vertex="1" parent="1">
          <mxGeometry x="335" y="274" width="53" height="22" as="geometry" />
        </mxCell>
        <mxCell id="tWXHz24MP8W2rNNDq5Hi-5" value="4k.json" style="rounded=1;whiteSpace=wrap;html=1;" vertex="1" parent="1">
          <mxGeometry x="335" y="310" width="53" height="22" as="geometry" />
        </mxCell>
      </root>
    </mxGraphModel>
  </diagram>
</mxfile>
